<svg width="290" height="37" viewBox="0 0 290 37" fill="none" xmlns="http://www.w3.org/2000/svg">
<path d="M8.68507 33.7988C7.27882 33.7988 6.50539 33.1133 6.06593 31.5312L0.440933 11.3164C0.28273 10.7539 0.212418 10.2793 0.212418 9.875C0.212418 8.62695 1.09132 7.83594 2.44484 7.83594C3.62257 7.83594 4.36086 8.48633 4.64211 9.73438L8.87843 27.3477H9.01906L13.6773 9.98047C14.064 8.46875 14.8023 7.83594 16.1382 7.83594C17.4214 7.83594 18.1773 8.50391 18.564 9.92773L23.2222 27.3477H23.3628L27.5991 9.73438C27.8804 8.46875 28.6187 7.83594 29.7964 7.83594C31.1499 7.83594 32.0288 8.62695 32.0288 9.875C32.0288 10.2617 31.9585 10.7363 31.8003 11.3164L26.1577 31.5488C25.7359 33.1133 24.9624 33.7988 23.5737 33.7988C22.1148 33.7988 21.3413 33.1484 20.9019 31.5488L16.2085 15.1484H16.0327L11.3394 31.5488C10.9175 33.1309 10.1089 33.7988 8.68507 33.7988ZM41.6173 33.8691C35.922 33.8691 32.5646 30.3008 32.5646 24.2539C32.5646 18.3125 35.9923 14.4805 41.3712 14.4805C46.4689 14.4805 49.9494 18.1016 49.9494 23.1641C49.9494 24.4648 49.2111 25.2383 47.9103 25.2383H36.924V25.3789C36.924 28.4902 38.7345 30.4941 41.5822 30.4941C43.5509 30.4941 44.8341 29.8086 46.2404 28.0156C46.6974 27.5059 47.1017 27.3125 47.7169 27.3125C48.7013 27.3125 49.4748 27.9453 49.4748 29C49.4748 29.334 49.3693 29.7207 49.1759 30.1074C47.9455 32.4805 45.1681 33.8691 41.6173 33.8691ZM36.9591 22.3555H45.6603C45.5724 19.6484 43.8498 17.873 41.3888 17.873C38.9279 17.873 37.1349 19.6836 36.9591 22.3555ZM55.4598 33.8516C54.1766 33.8516 53.2625 33.0254 53.2625 31.5488V10.0859C53.2625 8.60938 54.1766 7.7832 55.4598 7.7832C56.743 7.7832 57.6395 8.60938 57.6395 10.0859V31.5488C57.6395 33.0254 56.743 33.8516 55.4598 33.8516ZM69.9174 33.8691C64.4682 33.8691 60.9526 30.1777 60.9526 24.2012C60.9526 18.2598 64.4506 14.4805 69.8823 14.4805C73.5385 14.4805 76.6498 16.3613 77.5463 18.9805C77.687 19.3496 77.7748 19.7188 77.7748 20.0352C77.7748 21.125 76.9487 21.793 75.894 21.793C75.0151 21.793 74.4877 21.4238 73.978 20.5449C73.0463 18.8398 71.8159 18.0312 70.0053 18.0312C67.1928 18.0312 65.3998 20.3691 65.3998 24.1836C65.3998 28.0508 67.2104 30.3359 69.9877 30.3359C71.9213 30.3359 73.1166 29.4395 73.9604 27.9453C74.558 26.9609 75.0327 26.5918 75.9819 26.5918C77.019 26.5918 77.8276 27.2949 77.8276 28.3848C77.8276 28.7188 77.7397 29.0879 77.5639 29.5098C76.5268 32.0586 73.433 33.8691 69.9174 33.8691ZM89.3848 33.8691C83.918 33.8691 80.3673 30.2305 80.3673 24.1836C80.3673 18.1719 83.9532 14.4805 89.3848 14.4805C94.8165 14.4805 98.4024 18.1543 98.4024 24.1836C98.4024 30.2305 94.8516 33.8691 89.3848 33.8691ZM89.3848 30.4062C92.1622 30.4062 93.9552 28.1562 93.9552 24.1836C93.9552 20.2285 92.1622 17.9609 89.3848 17.9609C86.6251 17.9609 84.8145 20.2285 84.8145 24.1836C84.8145 28.1562 86.6075 30.4062 89.3848 30.4062ZM103.755 33.8516C102.436 33.8516 101.575 33.0078 101.575 31.5488V16.7305C101.575 15.3066 102.436 14.498 103.667 14.498C104.897 14.498 105.776 15.3066 105.776 16.7305V18.1016H105.864C106.673 15.9395 108.641 14.5156 111.173 14.5156C113.809 14.5156 115.69 15.8691 116.376 18.2598H116.481C117.378 15.957 119.592 14.5156 122.282 14.5156C125.956 14.5156 128.364 16.9941 128.364 20.7207V31.5488C128.364 33.0078 127.485 33.8516 126.184 33.8516C124.866 33.8516 123.987 33.0078 123.987 31.5488V21.793C123.987 19.5078 122.792 18.207 120.647 18.207C118.538 18.207 117.096 19.7539 117.096 21.9863V31.5488C117.096 33.0078 116.27 33.8516 114.969 33.8516C113.651 33.8516 112.842 33.0078 112.842 31.5488V21.5645C112.842 19.4902 111.577 18.207 109.538 18.207C107.428 18.207 105.952 19.8418 105.952 22.0918V31.5488C105.952 33.0078 105.055 33.8516 103.755 33.8516ZM140.519 33.8691C134.824 33.8691 131.466 30.3008 131.466 24.2539C131.466 18.3125 134.894 14.4805 140.273 14.4805C145.37 14.4805 148.851 18.1016 148.851 23.1641C148.851 24.4648 148.113 25.2383 146.812 25.2383H135.826V25.3789C135.826 28.4902 137.636 30.4941 140.484 30.4941C142.452 30.4941 143.736 29.8086 145.142 28.0156C145.599 27.5059 146.003 27.3125 146.619 27.3125C147.603 27.3125 148.376 27.9453 148.376 29C148.376 29.334 148.271 29.7207 148.077 30.1074C146.847 32.4805 144.07 33.8691 140.519 33.8691ZM135.861 22.3555H144.562C144.474 19.6484 142.751 17.873 140.29 17.873C137.829 17.873 136.036 19.6836 135.861 22.3555ZM162.315 33.5C160.909 33.5 160.048 32.6211 160.048 31.1445V10.4902C160.048 9.01367 160.909 8.13477 162.315 8.13477H170.577C175.182 8.13477 178.153 10.6133 178.153 14.4629C178.153 17.1875 176.131 19.5605 173.53 19.9824V20.123C176.975 20.457 179.383 22.9355 179.383 26.293C179.383 30.7578 176.096 33.5 170.682 33.5H162.315ZM164.583 18.8223H168.731C171.895 18.8223 173.671 17.4863 173.671 15.1309C173.671 12.916 172.141 11.668 169.434 11.668H164.583V18.8223ZM164.583 29.9668H169.645C172.985 29.9668 174.76 28.5781 174.76 25.9766C174.76 23.3926 172.932 22.0391 169.452 22.0391H164.583V29.9668ZM188.005 33.7988C184.402 33.7988 181.783 31.5312 181.783 28.1738C181.783 24.8691 184.331 22.8828 188.866 22.6016L193.806 22.3203V20.9844C193.806 19.0332 192.488 17.9082 190.325 17.9082C188.62 17.9082 187.513 18.4883 186.423 20.0879C185.966 20.6855 185.386 20.9668 184.648 20.9668C183.575 20.9668 182.802 20.2637 182.802 19.209C182.802 18.8047 182.908 18.418 183.101 18.0137C184.05 15.8516 186.933 14.4805 190.501 14.4805C195.124 14.4805 198.13 16.9238 198.13 20.668V31.6543C198.13 33.0605 197.234 33.8516 196.003 33.8516C194.808 33.8516 193.982 33.1309 193.911 31.8301V30.5293H193.824C192.751 32.5508 190.413 33.7988 188.005 33.7988ZM189.341 30.4941C191.802 30.4941 193.806 28.8418 193.806 26.5918V25.168L189.482 25.4316C187.372 25.5723 186.159 26.5215 186.159 27.998C186.159 29.5273 187.443 30.4941 189.341 30.4941ZM210.215 33.8691C204.766 33.8691 201.25 30.1777 201.25 24.2012C201.25 18.2598 204.748 14.4805 210.18 14.4805C213.836 14.4805 216.947 16.3613 217.844 18.9805C217.984 19.3496 218.072 19.7188 218.072 20.0352C218.072 21.125 217.246 21.793 216.191 21.793C215.312 21.793 214.785 21.4238 214.275 20.5449C213.344 18.8398 212.113 18.0312 210.303 18.0312C207.49 18.0312 205.697 20.3691 205.697 24.1836C205.697 28.0508 207.508 30.3359 210.285 30.3359C212.219 30.3359 213.414 29.4395 214.258 27.9453C214.855 26.9609 215.33 26.5918 216.279 26.5918C217.316 26.5918 218.125 27.2949 218.125 28.3848C218.125 28.7188 218.037 29.0879 217.861 29.5098C216.824 32.0586 213.73 33.8691 210.215 33.8691ZM223.758 33.8516C222.475 33.8516 221.561 33.0254 221.561 31.5488V10.0859C221.561 8.60938 222.475 7.7832 223.758 7.7832C225.042 7.7832 225.938 8.60938 225.938 10.0859V22.5664H225.991L233.303 15.3418C233.866 14.7441 234.34 14.498 235.008 14.498C236.098 14.498 236.924 15.3242 236.924 16.3789C236.924 17.0293 236.731 17.4336 236.133 17.9961L230.825 23.0234L236.661 30.3184C237.118 30.9512 237.258 31.3379 237.258 31.9004C237.258 33.043 236.397 33.8516 235.184 33.8516C234.323 33.8516 233.813 33.5527 233.18 32.6387L227.59 25.5547L225.938 27.1016V31.5488C225.938 33.0254 225.042 33.8516 223.758 33.8516ZM253.983 36.02H289.983V0.0199997H253.983V36.02Z" fill="#0C1421"/>
</svg>
